<svg xmlns="http://www.w3.org/2000/svg" xmlns:xlink="http://www.w3.org/1999/xlink" contentStyleType="text/css" data-diagram-type="SEQUENCE" height="392px" preserveAspectRatio="none" style="width:797px;height:392px;background:#FFFFFF;" version="1.1" viewBox="0 0 797 392" width="797px" zoomAndPan="magnify"><defs/><g><g><title>User</title><rect fill="transparent" height="321.1953" width="8" x="23.9551" y="36.2969"/><line style="stroke:#181818;stroke-width:0.5;stroke-dasharray:5.0,5.0;" x1="27" x2="27" y1="36.2969" y2="357.4922"/></g><g><title>ConfigMap Generator Software</title><rect fill="transparent" height="321.1953" width="8" x="350.9541" y="36.2969"/><line style="stroke:#181818;stroke-width:0.5;stroke-dasharray:5.0,5.0;" x1="354.5908" x2="354.5908" y1="36.2969" y2="357.4922"/></g><g><title>Input Files</title><rect fill="transparent" height="321.1953" width="8" x="616.042" y="36.2969"/><line style="stroke:#181818;stroke-width:0.5;stroke-dasharray:5.0,5.0;" x1="619.8218" x2="619.8218" y1="36.2969" y2="357.4922"/></g><g><title>ConfigMap.yml</title><rect fill="transparent" height="321.1953" width="8" x="728.6255" y="36.2969"/><line style="stroke:#181818;stroke-width:0.5;stroke-dasharray:5.0,5.0;" x1="732.2622" x2="732.2622" y1="36.2969" y2="357.4922"/></g><rect fill="#E2E2F0" height="30.2969" rx="2.5" ry="2.5" width="45.9102" x="5" y="5"/><text fill="#000000" font-family="sans-serif" font-size="14" lengthAdjust="spacing" textLength="31.9102" x="12" y="24.9951">User</text><rect fill="#E2E2F0" height="30.2969" rx="2.5" ry="2.5" width="45.9102" x="5" y="356.4922"/><text fill="#000000" font-family="sans-serif" font-size="14" lengthAdjust="spacing" textLength="31.9102" x="12" y="376.4873">User</text><rect fill="#E2E2F0" height="30.2969" rx="2.5" ry="2.5" width="230.7266" x="239.5908" y="5"/><text fill="#000000" font-family="sans-serif" font-size="14" lengthAdjust="spacing" textLength="216.7266" x="246.5908" y="24.9951">ConfigMap Generator Software</text><rect fill="#E2E2F0" height="30.2969" rx="2.5" ry="2.5" width="230.7266" x="239.5908" y="356.4922"/><text fill="#000000" font-family="sans-serif" font-size="14" lengthAdjust="spacing" textLength="216.7266" x="246.5908" y="376.4873">ConfigMap Generator Software</text><rect fill="#E2E2F0" height="30.2969" rx="2.5" ry="2.5" width="86.4404" x="576.8218" y="5"/><text fill="#000000" font-family="sans-serif" font-size="14" lengthAdjust="spacing" textLength="72.4404" x="583.8218" y="24.9951">Input Files</text><rect fill="#E2E2F0" height="30.2969" rx="2.5" ry="2.5" width="86.4404" x="576.8218" y="356.4922"/><text fill="#000000" font-family="sans-serif" font-size="14" lengthAdjust="spacing" textLength="72.4404" x="583.8218" y="376.4873">Input Files</text><rect fill="#E2E2F0" height="30.2969" rx="2.5" ry="2.5" width="118.7266" x="673.2622" y="5"/><text fill="#000000" font-family="sans-serif" font-size="14" lengthAdjust="spacing" textLength="104.7266" x="680.2622" y="24.9951">ConfigMap.yml</text><rect fill="#E2E2F0" height="30.2969" rx="2.5" ry="2.5" width="118.7266" x="673.2622" y="356.4922"/><text fill="#000000" font-family="sans-serif" font-size="14" lengthAdjust="spacing" textLength="104.7266" x="680.2622" y="376.4873">ConfigMap.yml</text><line style="stroke:#181818;stroke-width:1;" x1="352.9541" x2="342.9541" y1="67.4297" y2="63.4297"/><line style="stroke:#181818;stroke-width:1;" x1="352.9541" x2="342.9541" y1="67.4297" y2="71.4297"/><line style="stroke:#181818;stroke-width:1;" x1="27.9551" x2="353.9541" y1="67.4297" y2="67.4297"/><text fill="#000000" font-family="sans-serif" font-size="13" lengthAdjust="spacing" textLength="302.999" x="34.9551" y="62.3638">Provide Input Files (blueprint.xml, dummy.cfg)</text><line style="stroke:#181818;stroke-width:1;" x1="618.042" x2="608.042" y1="96.5625" y2="92.5625"/><line style="stroke:#181818;stroke-width:1;" x1="618.042" x2="608.042" y1="96.5625" y2="100.5625"/><line style="stroke:#181818;stroke-width:1;" x1="354.9541" x2="619.042" y1="96.5625" y2="96.5625"/><text fill="#000000" font-family="sans-serif" font-size="13" lengthAdjust="spacing" textLength="104.6475" x="361.9541" y="91.4966">Read Input Files</text><line style="stroke:#181818;stroke-width:1;" x1="355.9541" x2="365.9541" y1="125.6953" y2="121.6953"/><line style="stroke:#181818;stroke-width:1;" x1="355.9541" x2="365.9541" y1="125.6953" y2="129.6953"/><line style="stroke:#181818;stroke-width:1;" x1="354.9541" x2="619.042" y1="125.6953" y2="125.6953"/><text fill="#000000" font-family="sans-serif" font-size="13" lengthAdjust="spacing" textLength="133.3896" x="371.9541" y="120.6294">Return File Contents</text><line style="stroke:#181818;stroke-width:1;" x1="354.9541" x2="396.9541" y1="154.8281" y2="154.8281"/><line style="stroke:#181818;stroke-width:1;" x1="396.9541" x2="396.9541" y1="154.8281" y2="167.8281"/><line style="stroke:#181818;stroke-width:1;" x1="354.9541" x2="396.9541" y1="167.8281" y2="167.8281"/><line style="stroke:#181818;stroke-width:1;" x1="355.9541" x2="365.9541" y1="167.8281" y2="163.8281"/><line style="stroke:#181818;stroke-width:1;" x1="355.9541" x2="365.9541" y1="167.8281" y2="171.8281"/><text fill="#000000" font-family="sans-serif" font-size="13" lengthAdjust="spacing" textLength="207.2319" x="361.9541" y="149.7622">Extract Keys from blueprint.xml</text><line style="stroke:#181818;stroke-width:1;" x1="354.9541" x2="396.9541" y1="196.9609" y2="196.9609"/><line style="stroke:#181818;stroke-width:1;" x1="396.9541" x2="396.9541" y1="196.9609" y2="209.9609"/><line style="stroke:#181818;stroke-width:1;" x1="354.9541" x2="396.9541" y1="209.9609" y2="209.9609"/><line style="stroke:#181818;stroke-width:1;" x1="355.9541" x2="365.9541" y1="209.9609" y2="205.9609"/><line style="stroke:#181818;stroke-width:1;" x1="355.9541" x2="365.9541" y1="209.9609" y2="213.9609"/><text fill="#000000" font-family="sans-serif" font-size="13" lengthAdjust="spacing" textLength="251.0879" x="361.9541" y="191.895">Read Key-Value Pairs from dummy.cfg</text><line style="stroke:#181818;stroke-width:1;" x1="354.9541" x2="396.9541" y1="239.0938" y2="239.0938"/><line style="stroke:#181818;stroke-width:1;" x1="396.9541" x2="396.9541" y1="239.0938" y2="252.0938"/><line style="stroke:#181818;stroke-width:1;" x1="354.9541" x2="396.9541" y1="252.0938" y2="252.0938"/><line style="stroke:#181818;stroke-width:1;" x1="355.9541" x2="365.9541" y1="252.0938" y2="248.0938"/><line style="stroke:#181818;stroke-width:1;" x1="355.9541" x2="365.9541" y1="252.0938" y2="256.0938"/><text fill="#000000" font-family="sans-serif" font-size="13" lengthAdjust="spacing" textLength="197.666" x="361.9541" y="234.0278">Match Keys and Assign Values</text><line style="stroke:#181818;stroke-width:1;" x1="730.6255" x2="720.6255" y1="281.2266" y2="277.2266"/><line style="stroke:#181818;stroke-width:1;" x1="730.6255" x2="720.6255" y1="281.2266" y2="285.2266"/><line style="stroke:#181818;stroke-width:1;" x1="354.9541" x2="731.6255" y1="281.2266" y2="281.2266"/><text fill="#000000" font-family="sans-serif" font-size="13" lengthAdjust="spacing" textLength="144.8599" x="361.9541" y="276.1606">Create ConfigMap.yml</text><line style="stroke:#181818;stroke-width:1;" x1="355.9541" x2="365.9541" y1="310.3594" y2="306.3594"/><line style="stroke:#181818;stroke-width:1;" x1="355.9541" x2="365.9541" y1="310.3594" y2="314.3594"/><line style="stroke:#181818;stroke-width:1;" x1="354.9541" x2="731.6255" y1="310.3594" y2="310.3594"/><text fill="#000000" font-family="sans-serif" font-size="13" lengthAdjust="spacing" textLength="145.3296" x="371.9541" y="305.2935">Return ConfigMap.yml</text><line style="stroke:#181818;stroke-width:1;" x1="28.9551" x2="38.9551" y1="339.4922" y2="335.4922"/><line style="stroke:#181818;stroke-width:1;" x1="28.9551" x2="38.9551" y1="339.4922" y2="343.4922"/><line style="stroke:#181818;stroke-width:1;" x1="27.9551" x2="353.9541" y1="339.4922" y2="339.4922"/><text fill="#000000" font-family="sans-serif" font-size="13" lengthAdjust="spacing" textLength="229.6646" x="44.9551" y="334.4263">Return Output File (configMap.yml)</text><!--SRC=[TL5BRy8m3BxdLrYSG1g8NJaWRMYRfWaDiSVTIrs8Q9FETZRuzoiPj1J1BVRty6T7DivNo5Y23na9LN0xDj8qXRuZUKiBP7NMLUZrFd16_BvsTkD91CR6L2qAlGyXxW4AnFhHXMR1vsurnmgUo1EZ1eQtaEilCYM978gkxDbNKU7H5II9vVPrAg_OZtPbaPZss35cdmQ6qsapOm8B3Zyk8pZnX_vN4QbYvtMqBOiRo69PxaOsNmtCKPXSsWmJM19cfoQc1SycBaaZ-yI2EgsILp5TuvRyi5L6g_12Eu6SGmcTRDTaAKsj6NvYJOS5EZx8crskIUUeTlq_3tq6To9kvI7vdCTiBZk16HDgsgUzlcdmonVeahlM-vzgYAzHZtU5lZrL3Vu0]--></g></svg>